<svg width="150" height="150" viewBox="0 0 150 150" fill="none" xmlns="http://www.w3.org/2000/svg">
<path d="M75 98.4375C85.3553 98.4375 93.75 90.0428 93.75 79.6875C93.75 69.3322 85.3553 60.9375 75 60.9375C64.6447 60.9375 56.25 69.3322 56.25 79.6875C56.25 90.0428 64.6447 98.4375 75 98.4375Z" fill="#EEE3FB"/>
<path d="M126.562 42.1875H109.277C108.398 42.1875 107.309 41.6191 106.459 40.7227L98.8594 28.7285C98.7392 28.5382 98.605 28.357 98.458 28.1865C95.833 25.125 92.2852 23.4375 88.4766 23.4375H61.5234C57.7148 23.4375 54.167 25.125 51.542 28.1865C51.395 28.357 51.2608 28.5382 51.1406 28.7285L43.541 40.7402C42.8906 41.4492 41.9766 42.2051 41.0156 42.2051V39.8613C41.0156 38.6181 40.5218 37.4258 39.6427 36.5468C38.7636 35.6677 37.5713 35.1738 36.3281 35.1738H29.2969C28.0537 35.1738 26.8614 35.6677 25.9823 36.5468C25.1032 37.4258 24.6094 38.6181 24.6094 39.8613V42.2051H23.4375C19.7091 42.209 16.1345 43.6918 13.4981 46.3282C10.8617 48.9646 9.37888 52.5392 9.375 56.2676V112.5C9.37888 116.228 10.8617 119.803 13.4981 122.439C16.1345 125.076 19.7091 126.559 23.4375 126.562H126.562C130.291 126.559 133.866 125.076 136.502 122.439C139.138 119.803 140.621 116.228 140.625 112.5V56.25C140.621 52.5216 139.138 48.947 136.502 46.3106C133.866 43.6742 130.291 42.1914 126.562 42.1875ZM75 107.812C69.4374 107.812 63.9997 106.163 59.3746 103.073C54.7495 99.9822 51.1446 95.5896 49.0159 90.4505C46.8872 85.3113 46.3302 79.6563 47.4154 74.2006C48.5006 68.7449 51.1793 63.7335 55.1126 59.8001C59.046 55.8668 64.0574 53.1881 69.5131 52.1029C74.9688 51.0177 80.6238 51.5747 85.763 53.7034C90.9021 55.8321 95.2947 59.437 98.3851 64.0621C101.475 68.6872 103.125 74.1249 103.125 79.6875C103.116 87.1441 100.151 94.2928 94.878 99.5655C89.6053 104.838 82.4566 107.804 75 107.812Z" fill="#EEE3FB"/>
</svg>
