<svg width="150" height="150" viewBox="0 0 150 150" fill="none" xmlns="http://www.w3.org/2000/svg">
<g clip-path="url(#clip0_393_15)">
<path fill-rule="evenodd" clip-rule="evenodd" d="M54.0972 2.95715C39.6009 7.17991 26.7138 15.6738 17.1173 27.3306C7.52084 38.9875 1.66046 53.2661 0.300781 68.3036H34.5865C36.5851 45.4205 43.2197 23.1836 54.0865 2.94643L54.0972 2.95715ZM34.5865 81.6964H0.300781C1.65763 96.7345 7.5155 111.014 17.1101 122.673C26.7047 134.332 39.5906 142.828 54.0865 147.054C43.2197 126.816 36.5851 104.579 34.5865 81.6964ZM71.2722 149.914C58.282 129.312 50.3177 105.944 48.0222 81.6964H101.969C99.6731 105.944 91.7089 129.312 78.7186 149.914C76.238 150.038 73.7528 150.038 71.2722 149.914ZM95.9151 147.043C110.409 142.818 123.294 134.324 132.889 122.667C142.483 111.01 148.342 96.7326 149.701 81.6964H115.415C113.417 104.579 106.782 126.816 95.9151 147.054V147.043ZM115.415 68.3036H149.701C148.344 53.2655 142.486 38.9856 132.891 27.3268C123.297 15.668 110.411 7.17169 95.9151 2.94643C106.782 23.1836 113.417 45.4205 115.415 68.3036ZM71.2722 0.0857199C73.7564 -0.037932 76.2452 -0.037932 78.7294 0.0857199C91.7158 20.6891 99.6764 44.0571 101.969 68.3036H48.0329C50.3579 43.9071 58.3401 20.5179 71.2722 0.0857199Z" fill="#EEE3FB"/>
</g>
<defs>
<clipPath id="clip0_393_15">
<rect width="150" height="150" fill="white"/>
</clipPath>
</defs>
</svg>
